<svg width="80" height="19" xmlns="http://www.w3.org/2000/svg" xmlns:xlink="http://www.w3.org/1999/xlink">
 <style type="text/css">.st0{clip-path:url(#SVGID_1_);}
	.st1{fill:#000000;}</style>
 <g>
  <title>background</title>
  <rect x="-1" y="-1" width="82" height="21" id="canvas_background" fill="none"/>
 </g>
 <g>
  <title>Layer 1</title>
  <g stroke="null" id="svg_1">
   <g stroke="null" fill="#1e1313" id="svg_2">
    <defs stroke="null" fill="#1e1313" transform="translate(1.8890012502670288,0.850999116897583) scale(0.6456336975097656,0.6959312558174133) translate(-1.8890012502670288,-0.850999116897583) translate(2.925806760787964,1.22281813621521) scale(1.0500510931015015,1.099300742149353) translate(-2.925806760787964,-1.22281813621521) ">
     <rect stroke="null" fill="#1e1313" id="SVGID_3_" x="1.9" y="0.8" width="114.1" height="22.6"/>
    </defs>
    <clipPath stroke="null" fill="#1e1313" transform="translate(1.8890012502670288,0.850999116897583) scale(0.6456336975097656,0.6959312558174133) translate(-1.8890012502670288,-0.850999116897583) translate(2.925806760787964,1.22281813621521) scale(1.0500510931015015,1.099300742149353) translate(-2.925806760787964,-1.22281813621521) " id="SVGID_1_">
     <use stroke="null" fill="#1e1313" xlink:href="#SVGID_3_" id="svg_3"/>
    </clipPath>
    <g stroke="null" id="logo_1_" class="st0">
     <g stroke="null" id="Layer_1_2_">
      <g stroke="null" id="Group_306_1_">
       <g stroke="null" id="Asset_1_1_">
        <g stroke="null" id="Layer_1-2_1_">
         <path stroke="null" fill="#1e1313" id="Path_330_1_" class="st1" d="m31.859064,13.404504c-0.067795,2.524625 -1.762666,4.590226 -3.999895,4.743234l-5.694766,0c-0.610154,0 -1.084717,-0.535526 -1.084717,-1.22406l0,0l0,-14.459213c0,-0.688534 0.474564,-1.22406 1.084717,-1.22406l4.135485,0c2.305024,0.153008 4.135485,2.218609 4.135485,4.819738c0,1.071053 -0.338974,2.142106 -0.949128,2.983647c1.491486,0.918045 2.305024,2.524625 2.372819,4.360715l0,0zm-5.694766,-9.715979l-2.915178,0l0,4.896242l2.915178,0c1.220307,0 2.169435,-1.071053 2.23723,-2.448121c-0.067795,-1.377068 -1.084717,-2.448121 -2.23723,-2.448121zm3.525332,9.715979c-0.067795,-1.300564 -0.949128,-2.371617 -2.10164,-2.371617l-4.406664,0l0,4.743234l4.474459,0c1.152512,-0.076504 2.033845,-1.147557 2.033845,-2.371617l0,0z"/>
         <path stroke="null" fill="#1e1313" id="Path_331_1_" class="st1" d="m43.790955,12.027436c0,0.688534 -0.474564,1.22406 -1.084717,1.22406l0,0l-7.389637,0c0.406769,1.530075 1.694871,2.448121 3.118563,2.448121c0.881333,0 1.694871,-0.229511 2.372819,-0.765038c0.474564,-0.306015 1.152512,-0.076504 1.355897,0.459023c0,0 0,0.076504 0.067795,0.076504c0.203385,0.61203 0,1.300564 -0.542359,1.530075c-0.949128,0.765038 -2.10164,1.147557 -3.321947,0.994549c-2.982973,-0.153008 -5.287997,-2.983647 -5.152408,-6.27331c0.13559,-3.213159 2.372819,-5.737783 5.152408,-5.814287c2.643999,0.076504 5.423587,2.218609 5.423587,6.120302zm-8.474355,-1.147557l6.16933,0c-0.406769,-1.530075 -1.694871,-2.524625 -3.118563,-2.448121c-1.355897,-0.076504 -2.576204,0.918045 -3.050768,2.448121l0,0z"/>
         <path stroke="null" fill="#1e1313" id="Path_332_1_" class="st1" d="m53.824591,16.923678c0,0.688534 -0.474564,1.22406 -1.084717,1.22406l-6.643894,0c-0.406769,0 -0.813538,-0.229511 -0.949128,-0.688534c-0.203385,-0.459023 -0.13559,-0.918045 0.13559,-1.300564l5.355792,-7.803385l-4.542254,0c-0.610154,0 -1.084717,-0.535526 -1.084717,-1.22406s0.474564,-1.147557 1.084717,-1.147557l6.643894,0c0.406769,0 0.813538,0.229511 0.949128,0.688534c0.203385,0.459023 0.13559,0.918045 -0.13559,1.300564l-5.355792,7.803385l4.542254,0c0.610154,-0.076504 1.084717,0.535526 1.084717,1.147557l0,0z"/>
         <path stroke="null" fill="#1e1313" id="Path_333_1_" class="st1" d="m63.858227,16.923678c0,0.688534 -0.474564,1.22406 -1.084717,1.22406l-6.643894,0c-0.406769,0 -0.813538,-0.229511 -0.949128,-0.688534c-0.203385,-0.459023 -0.13559,-0.918045 0.13559,-1.300564l5.355792,-7.803385l-4.542254,0c-0.610154,0 -1.084717,-0.535526 -1.084717,-1.22406s0.474564,-1.22406 1.084717,-1.22406l6.643894,0c0.406769,0 0.813538,0.229511 0.949128,0.688534c0.203385,0.459023 0.13559,0.918045 -0.13559,1.300564l-5.355792,7.803385l4.542254,0c0.610154,0 1.084717,0.61203 1.084717,1.22406l0,0l0,0z"/>
         <path stroke="null" fill="#1e1313" id="Path_334_1_" class="st1" d="m65.417508,3.306006c-0.203385,-0.229511 -0.338974,-0.535526 -0.338974,-0.841542c0,-0.688534 0.474564,-1.22406 1.084717,-1.22406c0.338974,0 0.610154,0.153008 0.813538,0.382519c0.406769,0.459023 0.406769,1.22406 0,1.683083c-0.474564,0.382519 -1.152512,0.382519 -1.559281,0l0,0zm-0.338974,13.617672l0,-9.715979c0,-0.688534 0.474564,-1.22406 1.084717,-1.22406c0.610154,0 1.084717,0.535526 1.084717,1.22406l0,9.715979c0,0.688534 -0.474564,1.22406 -1.084717,1.22406c-0.610154,0 -1.084717,-0.535526 -1.084717,-1.22406l0,0z"/>
         <path stroke="null" fill="#1e1313" id="Path_335_1_" class="st1" d="m79.247655,12.027436c0,0.688534 -0.474564,1.22406 -1.084717,1.22406l0,0l-7.321842,0c0.406769,1.530075 1.694871,2.448121 3.118563,2.448121c0.881333,0 1.694871,-0.229511 2.372819,-0.765038c0.474564,-0.306015 1.152512,-0.076504 1.355897,0.459023c0,0 0,0.076504 0.067795,0.076504c0.203385,0.61203 0,1.300564 -0.542359,1.530075c-0.949128,0.765038 -2.10164,1.147557 -3.321947,0.994549c-2.982973,0.153008 -5.423587,-2.448121 -5.559177,-5.814287c-0.13559,-3.366166 2.169435,-6.120302 5.152408,-6.27331c0.13559,0 0.271179,0 0.406769,0c2.576204,0.076504 5.355792,2.218609 5.355792,6.120302zm-8.40656,-1.147557l6.16933,0c-0.406769,-1.530075 -1.694871,-2.524625 -3.118563,-2.448121c-1.355897,-0.076504 -2.643999,0.918045 -3.050768,2.448121z"/>
        </g>
       </g>
       <g stroke="null" id="Group_305_1_" transform="matrix(-0.6779483698132935,0,0,-0.7650377460050137,62.151153053725345,61.17499393595969) ">
        <g stroke="null" id="Group_304_1_">
         <path stroke="null" fill="#1e1313" id="Path_371_1_" class="st1" d="m85.089,78.851002c-0.2,0 -0.5,-0.1 -0.6,-0.3c-0.3,-0.3 -0.6,-0.6 -0.7,-0.9c-0.6,-0.6 -0.7,-0.8 -0.9,-0.9c-0.9,-0.2 -1.8,-0.2 -2.7,-0.2c-0.3,0 -10.9,0 -10.9,0c-3.2,0 -5.7,-2.6 -5.7,-5.7l0,-4.1c0,-2.5 1.7,-4.8 4.1,-5.5c0.5,-2.8 2.9,-4.7 5.7,-4.7l9.8,0c3.2,0 5.7,2.6 5.7,5.7l0,6.2c0,0.5 -0.4,0.9 -0.9,0.9s-0.9,-0.4 -0.9,-0.9l0,-6.2c0,-2.3 -1.8,-4.1 -4.1,-4.1l-9.8,0c-2.3,0 -4.1,1.8 -4.1,4.1l0,4.1c0,2.3 1.8,4.1 4.1,4.1l11.9,0c0.5,0 0.9,0.4 0.9,0.9l0,6.7c0,0.4 -0.4,0.8 -0.9,0.8l0,0zm-4.3,-3.9c2,0 2.8,0.1 3.5,0.8l0,-3.5l-11.1,0c-3.2,0 -5.7,-2.6 -5.7,-5.7l0,-3.4c-1.4,0.7 -2.3,2.1 -2.3,3.7l0,4c0,2.3 1.8,4.1 4.1,4.1l11.5,0z"/>
        </g>
        <path stroke="null" fill="#1e1313" id="Path_372_1_" class="st1" d="m73.389,64.351002c0,-0.6 -0.4,-0.9 -0.9,-0.9s-0.9,0.4 -0.9,0.9s0.4,0.9 0.9,0.9l0,0c0.5,0.1 0.9,-0.3 0.9,-0.9z"/>
        <path stroke="null" fill="#1e1313" id="Path_373_1_" class="st1" d="m78.989,64.351002c0,-0.6 -0.4,-0.9 -0.9,-0.9s-0.9,0.4 -0.9,0.9s0.4,0.9 0.9,0.9l0,0c0.5,0.1 0.9,-0.3 0.9,-0.9z"/>
        <path stroke="null" fill="#1e1313" id="Path_374_1_" class="st1" d="m84.589,64.351002c0,-0.6 -0.4,-0.9 -0.9,-0.9c-0.6,0 -0.9,0.4 -0.9,0.9s0.4,0.9 0.9,0.9l0,0c0.5,0.1 0.9,-0.3 0.9,-0.9z"/>
       </g>
      </g>
     </g>
    </g>
   </g>
  </g>
  <g id="svg_4"/>
  <g id="svg_5"/>
  <g id="svg_6"/>
  <g id="svg_7"/>
  <g id="svg_8"/>
  <g id="svg_9"/>
  <g id="svg_10"/>
  <g id="svg_11"/>
  <g id="svg_12"/>
  <g id="svg_13"/>
  <g id="svg_14"/>
 </g>
</svg>